<?xml version="1.0" encoding="utf-8"?>
<!-- Generator: Adobe Illustrator 22.1.0, SVG Export Plug-In . SVG Version: 6.00 Build 0)  -->
<svg version="1.1" id="Layer_1" xmlns="http://www.w3.org/2000/svg" xmlns:xlink="http://www.w3.org/1999/xlink" x="0px" y="0px"
	 viewBox="0 0 109 200" style="enable-background:new 0 0 109 200;" xml:space="preserve">
<style type="text/css">
	.st0{fill:#FFFFFF;}
</style>
<path class="st0" d="M94.7,0H14.3C6.4,0,0,6.4,0,14.3v171.3c0,7.9,6.4,14.3,14.3,14.3h80.3c7.9,0,14.3-6.4,14.3-14.3V14.3
	C109,6.4,102.6,0,94.7,0z M43,11h23v6H43V11z M54.5,194.6c-4.4,0-8-3.6-8-8s3.6-8,8-8s8,3.6,8,8S58.9,194.6,54.5,194.6z M97.5,172
	h-86V26.1h86V172z"/>
<polygon class="st0" points="75.5,110.5 75.5,103.1 59.1,103.1 59.1,119.5 66.5,119.5 54.5,131.5 42.5,119.5 49.9,119.5 49.9,103.1 
	33.5,103.1 33.5,110.5 21.5,98.5 33.5,86.5 33.5,93.9 49.9,93.9 49.9,77.5 42.5,77.5 54.5,65.5 66.5,77.5 59.1,77.5 59.1,93.9 
	75.5,93.9 75.5,86.5 87.5,98.5 "/>
</svg>
